<?xml version="1.0" encoding="UTF-8" standalone="no"?>
<!-- Created with Inkscape (http://www.inkscape.org/) -->

<svg
   width="186.68643mm"
   height="60.201839mm"
   viewBox="0 0 186.68643 60.201839"
   version="1.1"
   id="svg1"
   xml:space="preserve"
   inkscape:version="1.3.2 (091e20ef0f, 2023-11-25, custom)"
   sodipodi:docname="logo2.svg"
   xmlns:inkscape="http://www.inkscape.org/namespaces/inkscape"
   xmlns:sodipodi="http://sodipodi.sourceforge.net/DTD/sodipodi-0.dtd"
   xmlns:xlink="http://www.w3.org/1999/xlink"
   xmlns="http://www.w3.org/2000/svg"
   xmlns:svg="http://www.w3.org/2000/svg"><sodipodi:namedview
     id="namedview1"
     pagecolor="#ffffff"
     bordercolor="#eeeeee"
     borderopacity="1"
     inkscape:showpageshadow="0"
     inkscape:pageopacity="0"
     inkscape:pagecheckerboard="0"
     inkscape:deskcolor="#d1d1d1"
     inkscape:document-units="mm"
     inkscape:zoom="1.4289282"
     inkscape:cx="396.10109"
     inkscape:cy="79.080252"
     inkscape:window-width="1898"
     inkscape:window-height="1034"
     inkscape:window-x="1930"
     inkscape:window-y="594"
     inkscape:window-maximized="1"
     inkscape:current-layer="layer2"
     showgrid="false"
     showguides="true"><sodipodi:guide
       position="100.55506,296.6104"
       orientation="0,-1"
       id="guide1"
       inkscape:locked="false" /><sodipodi:guide
       position="111.1093,235.32175"
       orientation="0,-1"
       id="guide2"
       inkscape:locked="false" /><sodipodi:guide
       position="-0.17312038,309.38659"
       orientation="1,0"
       id="guide3"
       inkscape:locked="false" /><sodipodi:guide
       position="174.43474,318.45953"
       orientation="1,0"
       id="guide4"
       inkscape:locked="false" /><sodipodi:guide
       position="65.126335,301.3902"
       orientation="1,0"
       id="guide5"
       inkscape:locked="false" /><sodipodi:guide
       position="43.166685,243.93661"
       orientation="0,-1"
       id="guide6"
       inkscape:locked="false" /></sodipodi:namedview><defs
     id="defs1"><linearGradient
       id="linearGradient10"
       inkscape:collect="always"><stop
         style="stop-color:#ff9b34;stop-opacity:0.97254902;"
         offset="0"
         id="stop11" /><stop
         style="stop-color:#fbfdfa;stop-opacity:1;"
         offset="0.50923532"
         id="stop13" /><stop
         style="stop-color:#5ba53d;stop-opacity:0.98823529;"
         offset="1"
         id="stop12" /></linearGradient><linearGradient
       id="linearGradient8"
       inkscape:collect="always"><stop
         style="stop-color:#ff9528;stop-opacity:0.97254902;"
         offset="0"
         id="stop8" /><stop
         style="stop-color:#ffffff;stop-opacity:1;"
         offset="0.49806997"
         id="stop9" /><stop
         style="stop-color:#53a033;stop-opacity:0.98823529;"
         offset="1"
         id="stop10" /></linearGradient><linearGradient
       id="linearGradient3"
       inkscape:collect="always"><stop
         style="stop-color:#ff8f1c;stop-opacity:1;"
         offset="0"
         id="stop3" /><stop
         style="stop-color:#ff982e;stop-opacity:0.95686275;"
         offset="0.21310785"
         id="stop6" /><stop
         style="stop-color:#ffffff;stop-opacity:1;"
         offset="0.47437403"
         id="stop5" /><stop
         style="stop-color:#57a237;stop-opacity:0.97647059;"
         offset="0.76893914"
         id="stop7" /><stop
         style="stop-color:#509e2f;stop-opacity:1;"
         offset="1"
         id="stop4" /></linearGradient><linearGradient
       inkscape:collect="always"
       xlink:href="#linearGradient3"
       id="linearGradient4"
       x1="111.96556"
       y1="99.112923"
       x2="109.1545"
       y2="203.94614"
       gradientUnits="userSpaceOnUse"
       gradientTransform="matrix(0.38700773,0,0,0.38700773,17.503261,36.987656)" /><linearGradient
       inkscape:collect="always"
       xlink:href="#linearGradient8"
       id="linearGradient9"
       x1="94.350662"
       y1="100.47347"
       x2="151.52605"
       y2="100.47347"
       gradientUnits="userSpaceOnUse"
       gradientTransform="matrix(1.1631049,0,0,1.1631049,-19.169581,-18.113136)" /><linearGradient
       inkscape:collect="always"
       xlink:href="#linearGradient10"
       id="linearGradient12"
       x1="93.682388"
       y1="78.444923"
       x2="193.58063"
       y2="78.444923"
       gradientUnits="userSpaceOnUse"
       gradientTransform="matrix(1.1960898,0,0,1.1960898,-20.424074,-20.358047)" /></defs><g
     inkscape:label="Layer 1"
     inkscape:groupmode="layer"
     id="layer1"
     transform="translate(-24.429354,-55.714512)"><path
       style="fill:url(#linearGradient4);stroke:none;stroke-width:0.387008"
       d="m 56.030896,115.7749 c -0.128045,-0.0781 -0.28637,-0.23607 -0.351836,-0.35113 l -0.119024,-0.20918 -2.694749,-3.9e-4 -2.694746,-3.9e-4 -0.172719,-0.17272 c -0.220128,-0.22013 -0.220128,-0.48994 0,-0.71007 l 0.172719,-0.17272 h 2.677154 2.677154 v -0.59823 -0.59813 h -2.557904 c -1.604643,0 -2.636875,-0.0275 -2.769807,-0.0739 -0.199344,-0.0695 -0.372036,-0.30997 -0.372036,-0.51807 0,-0.051 0.06563,-0.17618 0.145842,-0.27816 l 0.145842,-0.1854 h 2.697081 2.69708 l 0.142737,-0.24192 c 0.237533,-0.40259 0.488756,-0.48918 1.507205,-0.51953 l 0.897181,-0.0267 v -1.08363 -1.08363 l -5.506237,-7.7e-4 -5.506237,-7.8e-4 -0.354712,-0.16517 c -0.379301,-0.17663 -0.698368,-0.50202 -0.852195,-0.86911 -0.07496,-0.17887 -0.09456,-0.89571 -0.09334,-3.41281 0.0014,-2.94325 0.01144,-3.20815 0.131177,-3.47177 0.167614,-0.36902 0.633742,-0.76519 1.031283,-0.87649 l 0.313707,-0.0878 v -0.591186 c 0,-0.502685 -0.01843,-0.596468 -0.123143,-0.626465 -0.06773,-0.01939 -0.297301,-0.123374 -0.510162,-0.23104 -0.304165,-0.153847 -0.43598,-0.27697 -0.615714,-0.575113 l -0.228693,-0.379353 v -3.24312 -3.243117 l 0.228693,-0.379357 c 0.179734,-0.298139 0.311549,-0.421262 0.615714,-0.575113 0.212861,-0.107665 0.442434,-0.211631 0.510162,-0.231036 0.104708,-0.02999 0.123143,-0.123784 0.123143,-0.626465 V 88.77371 l -0.313707,-0.08783 c -0.397541,-0.111304 -0.863669,-0.507468 -1.031283,-0.876488 -0.119741,-0.263622 -0.129749,-0.528521 -0.131177,-3.471776 -0.0012,-2.517099 0.01839,-3.233938 0.09334,-3.412813 0.153827,-0.36708 0.472894,-0.69248 0.852195,-0.869103 l 0.354712,-0.165179 10.173395,-7.74e-4 10.173392,-7.74e-4 0.152999,0.162861 c 0.202912,0.215989 0.198876,0.543552 -0.0091,0.738941 l -0.162106,0.152291 -10.15292,0.01831 -10.152916,0.0183 -0.134512,0.166123 c -0.12777,0.157795 -0.134512,0.31756 -0.134512,3.187315 v 3.021195 l 0.17272,0.172721 0.172719,0.172718 h 12.602137 12.602133 l 0.172721,-0.172718 0.172718,-0.172721 v -2.988052 c 0,-1.643428 -0.01966,-3.039307 -0.04371,-3.10196 -0.103516,-0.269767 -0.386674,-0.319804 -1.809729,-0.319804 -1.231621,0 -1.384056,-0.01312 -1.530465,-0.131667 -0.225942,-0.182958 -0.225942,-0.609216 0,-0.792174 0.147477,-0.119419 0.300984,-0.131602 1.650112,-0.130979 1.412462,7.74e-4 1.505406,0.009 1.842223,0.165864 0.379298,0.176622 0.698367,0.502022 0.852195,0.869103 0.07487,0.178662 0.09489,0.897738 0.09489,3.408187 0,3.082594 -0.0046,3.191212 -0.146919,3.485253 -0.188585,0.389558 -0.618036,0.755907 -1.017088,0.867636 l -0.313704,0.08783 v 0.591185 c 0,0.50268 0.01842,0.596468 0.123142,0.626465 0.06773,0.01939 0.297299,0.12337 0.510161,0.231036 0.304165,0.153851 0.43598,0.276973 0.615714,0.575112 l 0.228694,0.379357 v 3.243117 3.243121 l -0.228694,0.379353 c -0.179734,0.298143 -0.311549,0.421265 -0.615714,0.575112 -0.212862,0.107666 -0.442435,0.211636 -0.510161,0.23104 -0.104709,0.02999 -0.123142,0.123781 -0.123142,0.626465 v 0.591191 l 0.313704,0.0878 c 0.397542,0.1113 0.86367,0.50747 1.031287,0.87649 0.119736,0.26362 0.129748,0.52852 0.131176,3.47177 0.0012,2.5171 -0.01838,3.23394 -0.09334,3.41281 -0.153828,0.36708 -0.472897,0.69248 -0.852195,0.86911 -0.336232,0.15657 -0.430956,0.16521 -1.818031,0.16586 -1.460242,7.8e-4 -1.463682,3.3e-4 -1.63604,-0.17203 -0.220126,-0.22013 -0.220126,-0.48994 0,-0.71007 0.17132,-0.17132 0.1836,-0.17272 1.516389,-0.17272 1.397605,0 1.682396,-0.051 1.785541,-0.31981 0.02403,-0.0626 0.04371,-1.45853 0.04371,-3.10196 v -2.98805 l -0.172718,-0.17272 -0.172721,-0.17272 H 59.746898 47.144761 l -0.172719,0.17272 -0.17272,0.17272 v 2.98805 c 0,1.64343 0.01967,3.03931 0.04371,3.10196 0.126769,0.33036 -0.219975,0.31981 10.511081,0.31981 h 10.06921 l 0.172718,0.17272 c 0.095,0.095 0.172721,0.25476 0.172721,0.35504 0,0.10027 -0.07772,0.26003 -0.172721,0.35503 l -0.172718,0.17272 H 64.429516 61.43571 v 1.08362 1.08363 l 0.89718,0.0267 c 1.018454,0.0303 1.269676,0.11694 1.507206,0.51953 l 0.142736,0.24192 h 2.69708 2.69708 l 0.145844,0.18541 c 0.08021,0.10197 0.14584,0.22714 0.14584,0.27815 0,0.20811 -0.17269,0.44858 -0.372034,0.51808 -0.132934,0.0463 -1.165164,0.0739 -2.769807,0.0739 h -2.557904 v 0.59812 0.59812 h 2.677153 2.677153 l 0.172721,0.17272 c 0.09499,0.095 0.172718,0.25476 0.172718,0.35503 0,0.10028 -0.07772,0.26004 -0.172718,0.35504 l -0.172721,0.17272 -2.694743,3.9e-4 -2.694746,3.8e-4 -0.119028,0.20919 c -0.06547,0.11506 -0.223791,0.27306 -0.351837,0.35113 -0.225188,0.13729 -0.346801,0.14194 -3.715986,0.14194 -3.369185,0 -3.490798,-0.005 -3.71599,-0.14194 z m 6.882515,-2.21483 v -1.3018 h -3.166525 -3.166528 v 1.3018 1.30179 h 3.166528 3.166525 z M 60.38019,110.0417 v -1.09069 h -0.633304 -0.633307 v 1.09069 1.09069 h 0.633307 0.633304 z M 71.216747,99.486614 v -0.59812 H 59.746886 48.277023 v 0.59812 0.598126 h 11.469863 11.469861 z m 1.314851,-1.876995 0.16286,-0.153004 v -3.026582 c 0,-3.010614 -7.74e-4,-3.027441 -0.152999,-3.189443 l -0.153,-0.16286 H 62.243156 c -7.225756,0 -10.2095,-0.02237 -10.368389,-0.07777 -0.403908,-0.140805 -0.502022,-0.645378 -0.175443,-0.902266 l 0.185407,-0.14584 h 9.66601 9.666006 V 89.35373 88.75561 H 59.746886 48.277023 v 0.59812 0.598124 h 0.671983 c 0.45214,0 0.737113,0.03367 0.871063,0.102948 0.334859,0.173163 0.380693,0.483292 0.116799,0.790309 l -0.169703,0.197436 -1.325601,0.02287 c -1.232116,0.02128 -1.336767,0.03328 -1.483927,0.170593 l -0.158326,0.147713 v 3.026582 c 0,3.010619 8.12e-4,3.027442 0.153,3.189443 l 0.153,0.162865 H 59.737025 72.368737 Z M 49.054177,95.962808 c -0.895965,-0.388668 -1.297185,-1.361443 -0.911976,-2.211122 0.192932,-0.425565 0.384041,-0.620133 0.80331,-0.817852 0.65622,-0.309455 1.354913,-0.188434 1.86668,0.323334 0.665074,0.665072 0.665074,1.66094 0,2.326013 -0.471533,0.471534 -1.189001,0.626465 -1.758014,0.379627 z m 1.013692,-1.158488 c 0.33605,-0.329971 0.06761,-0.94005 -0.413621,-0.94005 -0.430495,0 -0.698841,0.407612 -0.517426,0.785959 0.178274,0.371798 0.632732,0.447009 0.931047,0.154091 z m 3.58945,1.194592 c -0.310946,-0.09042 -0.805379,-0.541354 -0.955173,-0.871139 -0.171086,-0.376667 -0.171086,-1.038535 0,-1.415198 0.157603,-0.34698 0.647389,-0.780776 0.988556,-0.875551 0.729723,-0.202714 1.481165,0.05881 1.882902,0.655301 0.882707,1.310633 -0.374376,2.954955 -1.916285,2.506587 z m 0.927724,-1.147416 c 0.437853,-0.376628 0.107112,-1.094713 -0.462254,-1.003611 -0.301332,0.04822 -0.497855,0.265139 -0.497855,0.549527 0,0.550979 0.546808,0.809589 0.960109,0.454084 z m 3.422205,1.042951 c -0.400975,-0.199816 -0.677132,-0.516744 -0.831494,-0.954245 -0.271583,-0.769747 0.08359,-1.621605 0.831494,-1.994301 1.098142,-0.547229 2.382973,0.223238 2.39028,1.433361 0.0077,1.274513 -1.260291,2.078281 -2.39028,1.515185 z m 1.19429,-1.09291 c 0.06773,-0.08287 0.123142,-0.25448 0.123142,-0.381365 0,-0.305744 -0.188867,-0.522847 -0.497854,-0.572287 -0.200126,-0.03201 -0.291502,-0.0059 -0.446832,0.127704 -0.442063,0.380243 -0.122302,1.107938 0.446832,1.016871 0.138363,-0.02214 0.306986,-0.108053 0.374712,-0.190923 z m 2.598262,1.109404 c -0.202959,-0.216039 -0.195037,-0.505168 0.01974,-0.719927 0.142191,-0.14219 0.242255,-0.172717 0.566135,-0.172717 0.323879,0 0.423947,0.03053 0.566138,0.172717 0.09499,0.095 0.172717,0.254764 0.172717,0.355037 0,0.10027 -0.07772,0.260038 -0.172717,0.355033 -0.144157,0.144157 -0.24104,0.172718 -0.585857,0.172718 -0.340864,0 -0.4399,-0.02848 -0.566138,-0.162861 z m 2.591322,0.02214 c -0.20953,-0.20953 -0.187644,-0.586193 0.04468,-0.768934 0.149686,-0.117743 0.285867,-0.14584 0.706869,-0.14584 0.459827,0 0.541877,0.02043 0.694184,0.172718 0.221627,0.221632 0.225753,0.526965 0.0099,0.729788 -0.139829,0.131366 -0.244314,0.153 -0.738855,0.153 -0.482173,0 -0.598918,-0.02291 -0.716731,-0.140732 z m 2.897326,-0.02214 c -0.202958,-0.216039 -0.19504,-0.505168 0.01974,-0.719927 0.152303,-0.152303 0.234353,-0.172717 0.694184,-0.172717 0.643919,0 0.892277,0.148316 0.892277,0.532859 0,0.412194 -0.183298,0.522646 -0.867323,0.522646 -0.521408,0 -0.602687,-0.01792 -0.738856,-0.162861 z m 2.877898,-0.02256 c -0.193465,-0.245951 -0.184204,-0.486299 0.02686,-0.69738 0.142191,-0.142191 0.242255,-0.172718 0.566134,-0.172718 0.323879,0 0.423948,0.03054 0.566139,0.172718 0.221631,0.221631 0.225753,0.526965 0.0099,0.729788 -0.130545,0.122643 -0.248211,0.153 -0.593012,0.153 -0.380889,0 -0.446858,-0.02125 -0.575995,-0.185408 z m -8.346824,-2.23906 c -0.221632,-0.221632 -0.225757,-0.526966 -0.0099,-0.729793 0.245367,-0.230509 0.903261,-0.21915 1.142133,0.01974 0.095,0.095 0.172718,0.254759 0.172718,0.355033 0,0.100274 -0.07772,0.260038 -0.172718,0.355037 -0.14219,0.142191 -0.242259,0.172718 -0.566138,0.172718 -0.323879,0 -0.423943,-0.03054 -0.566134,-0.172718 z m 2.616277,0.02686 c -0.232321,-0.182745 -0.254207,-0.559404 -0.04468,-0.768934 0.118196,-0.118196 0.234558,-0.140735 0.726592,-0.140735 0.521404,0 0.602687,0.01792 0.738856,0.16286 0.202958,0.216039 0.19504,0.505173 -0.01974,0.719931 -0.152307,0.152303 -0.234356,0.172718 -0.694183,0.172718 -0.421003,0 -0.557183,-0.0281 -0.70687,-0.14584 z m 2.872367,-0.02686 c -0.221632,-0.221632 -0.225753,-0.526966 -0.0099,-0.729793 0.13983,-0.131362 0.244314,-0.152999 0.738856,-0.152999 0.673332,0 0.857462,0.112232 0.857462,0.522646 0,0.384546 -0.248358,0.532863 -0.892277,0.532863 -0.459831,0 -0.541881,-0.02043 -0.694184,-0.172717 z m 2.885058,0 c -0.211082,-0.211082 -0.220343,-0.451433 -0.02686,-0.697384 0.129775,-0.164982 0.194313,-0.185408 0.585856,-0.185408 0.368958,0 0.464719,0.02632 0.593012,0.16286 0.202959,0.21604 0.195041,0.505173 -0.01974,0.719932 -0.142191,0.14219 -0.242259,0.172717 -0.566138,0.172717 -0.323879,0 -0.423944,-0.03054 -0.566134,-0.172717 z M 49.297348,106.14349 c -0.548384,-0.1403 -1.09419,-0.63454 -1.226352,-1.11049 -0.193544,-0.69699 -0.02024,-1.28916 0.51524,-1.7605 0.425303,-0.37437 0.88508,-0.49778 1.413735,-0.37947 1.255648,0.281 1.739056,1.82168 0.859482,2.73928 -0.409846,0.42756 -1.058852,0.63994 -1.562105,0.51118 z m 0.724735,-1.20538 c 0.212106,-0.1976 0.256737,-0.43667 0.128,-0.68562 -0.220496,-0.42639 -0.782423,-0.40869 -1.01716,0.0321 -0.121124,0.22742 -0.1017,0.33968 0.100313,0.57976 0.219955,0.2614 0.553953,0.29265 0.788847,0.0738 z m 3.739279,1.17251 c -0.449192,-0.12113 -0.740059,-0.3498 -0.982388,-0.77231 -0.394335,-0.68755 -0.24436,-1.60357 0.342115,-2.08957 1.100411,-0.91188 2.716164,-0.15673 2.71544,1.26912 -3.87e-4,0.77288 -0.436571,1.36307 -1.167865,1.58024 -0.426603,0.12669 -0.481148,0.12744 -0.907302,0.0125 z m 0.775572,-1.09871 c 0.192776,-0.10317 0.292303,-0.44993 0.202815,-0.70664 -0.0887,-0.25445 -0.24674,-0.35035 -0.577326,-0.35035 -0.181735,0 -0.28382,0.0483 -0.391649,0.18541 -0.303917,0.38637 -0.07317,0.94047 0.391649,0.94047 0.135193,0 0.30372,-0.031 0.374511,-0.0689 z m 3.675668,1.06402 c -0.708878,-0.25009 -1.099133,-0.8031 -1.099516,-1.55807 -7.74e-4,-1.42585 1.61503,-2.181 2.71544,-1.26912 0.884742,0.73317 0.711842,2.24978 -0.311975,2.73653 -0.453569,0.21564 -0.868024,0.24446 -1.303949,0.0907 z m 0.966238,-1.18054 c 0.310493,-0.39473 0.07907,-0.94047 -0.398803,-0.94047 -0.131258,0 -0.296564,0.031 -0.367356,0.0689 -0.154958,0.0829 -0.294942,0.45082 -0.235602,0.61918 0.160414,0.45518 0.729478,0.59856 1.001761,0.25241 z m 2.771622,1.24042 c -0.313863,-0.12646 -0.405538,-0.6013 -0.162926,-0.84391 0.111539,-0.11154 0.234557,-0.14074 0.593015,-0.14074 0.404791,0 0.467591,0.0195 0.598121,0.18541 0.08021,0.10198 0.14584,0.22715 0.14584,0.27816 0,0.18607 -0.160426,0.43759 -0.327722,0.51382 -0.201217,0.0917 -0.627731,0.0953 -0.846328,0.007 z m 2.651761,0.0245 c -0.237487,-0.0953 -0.351836,-0.26324 -0.351836,-0.51658 0,-0.40833 0.148375,-0.49258 0.86754,-0.49258 0.516349,0 0.631813,0.0216 0.750907,0.14074 0.177311,0.17731 0.180748,0.49793 0.0076,0.71171 -0.114678,0.14163 -0.204766,0.16678 -0.650897,0.18173 -0.284791,0.01 -0.565298,-0.002 -0.623353,-0.025 z m 2.836883,-0.0209 c -0.314653,-0.13416 -0.405212,-0.60523 -0.162926,-0.84752 0.11866,-0.11866 0.234557,-0.14074 0.738856,-0.14074 0.69423,0 0.879591,0.10892 0.879591,0.51685 0,0.36889 -0.198427,0.498 -0.797855,0.51917 -0.277168,0.01 -0.573116,-0.0117 -0.657666,-0.0478 z m 2.89805,-0.0136 c -0.341345,-0.2057 -0.403588,-0.49328 -0.17081,-0.78921 0.13053,-0.16594 0.19333,-0.18541 0.59812,-0.18541 0.520371,0 0.733748,0.14098 0.733748,0.48478 0,0.34334 -0.203942,0.51829 -0.639206,0.54834 -0.220133,0.0152 -0.440565,-0.01 -0.521852,-0.0585 z m -8.54688,-2.39523 c -0.195447,-0.20979 -0.183144,-0.5164 0.02926,-0.72879 0.133263,-0.13326 0.246582,-0.17271 0.496063,-0.17271 0.69668,0 1.01694,0.42024 0.663087,0.87009 -0.130363,0.16574 -0.19355,0.18541 -0.59538,0.18541 -0.371833,0 -0.47434,-0.0266 -0.593016,-0.154 z m 2.600846,0.0133 c -0.20953,-0.20953 -0.187644,-0.58618 0.04468,-0.76893 0.149686,-0.11774 0.285867,-0.14584 0.706869,-0.14584 0.459827,0 0.541877,0.0204 0.694184,0.17272 0.221627,0.22163 0.225753,0.52696 0.0099,0.72979 -0.139829,0.13136 -0.244314,0.153 -0.738855,0.153 -0.482173,0 -0.598918,-0.0229 -0.716731,-0.14074 z m 2.885058,0 c -0.195609,-0.1956 -0.181248,-0.52882 0.032,-0.74205 0.152303,-0.1523 0.234353,-0.17272 0.694184,-0.17272 0.643919,0 0.892277,0.14832 0.892277,0.53286 0,0.41436 -0.18225,0.52265 -0.879591,0.52265 -0.504298,0 -0.620195,-0.0221 -0.738856,-0.14074 z m 2.890166,-0.0447 c -0.180516,-0.22949 -0.185772,-0.45337 -0.01556,-0.66355 0.10296,-0.12715 0.21994,-0.16736 0.558034,-0.19182 0.386853,-0.028 0.445059,-0.0137 0.608585,0.14988 0.229763,0.22977 0.23712,0.53201 0.01796,0.7379 -0.130546,0.12264 -0.248212,0.153 -0.593012,0.153 -0.380889,0 -0.446859,-0.0212 -0.575996,-0.18541 z M 49.261708,85.949463 c -1.232599,-0.402349 -1.676775,-1.79034 -0.86166,-2.692575 0.692031,-0.765997 1.751808,-0.78705 2.459405,-0.04886 0.763241,0.796238 0.505516,2.142351 -0.501678,2.620294 -0.297542,0.141192 -0.848195,0.202057 -1.096067,0.121145 z M 49.9275,84.8417 c 0.06265,-0.02403 0.162812,-0.138278 0.222583,-0.253862 0.313399,-0.606046 -0.477572,-1.133851 -0.916847,-0.611801 -0.202013,0.240077 -0.221437,0.352336 -0.100313,0.579757 0.157398,0.295523 0.473299,0.409191 0.794577,0.285906 z m 3.7678,1.065417 c -0.71426,-0.230703 -1.126347,-0.81274 -1.125215,-1.589267 0.0016,-1.116374 1.015095,-1.88984 2.073203,-1.582238 0.753005,0.218903 1.192843,0.803834 1.193241,1.586863 3.87e-4,1.141293 -1.067228,1.931536 -2.141229,1.584642 z m 0.841634,-1.090588 c 0.192776,-0.103172 0.292303,-0.449935 0.202815,-0.706641 -0.0887,-0.254446 -0.24674,-0.350351 -0.577326,-0.350351 -0.181735,0 -0.28382,0.04833 -0.391649,0.185408 -0.303917,0.386365 -0.07317,0.940467 0.391649,0.940467 0.135193,0 0.30372,-0.031 0.374511,-0.06888 z m 3.80215,1.12901 c -0.773567,-0.235309 -1.226397,-0.834795 -1.225998,-1.623064 3.87e-4,-1.070851 0.92789,-1.833817 1.966773,-1.618145 1.67817,0.348388 1.784574,2.714 0.144091,3.203429 -0.375088,0.111903 -0.608434,0.121869 -0.884866,0.03777 z m 0.822736,-1.213126 c 0.110266,-0.103591 0.16286,-0.232797 0.16286,-0.400077 0,-0.685193 -0.916132,-0.790789 -1.1486,-0.132396 -0.05489,0.155465 0.0626,0.481585 0.215262,0.597513 0.185922,0.141185 0.587001,0.107325 0.770478,-0.06504 z m 2.657702,1.106153 c -0.213234,-0.21323 -0.227596,-0.546443 -0.03201,-0.742052 0.11154,-0.11154 0.234558,-0.140736 0.593016,-0.140736 0.404791,0 0.467591,0.01947 0.59812,0.185408 0.353853,0.449854 0.03359,0.870102 -0.663087,0.870102 -0.249481,0 -0.3628,-0.03946 -0.496063,-0.172722 z m 2.616277,0.0269 c -0.232321,-0.182741 -0.254207,-0.5594 -0.04468,-0.76893 0.118196,-0.118196 0.234558,-0.140735 0.726592,-0.140735 0.521404,0 0.602687,0.01792 0.738856,0.16286 0.202958,0.216039 0.19504,0.505173 -0.01974,0.719927 -0.152307,0.152307 -0.234356,0.172722 -0.694183,0.172722 -0.421003,0 -0.557183,-0.0281 -0.70687,-0.145844 z m 2.872367,-0.0269 c -0.213234,-0.21323 -0.227595,-0.546443 -0.03201,-0.742052 0.118661,-0.118661 0.234558,-0.140736 0.738856,-0.140736 0.697342,0 0.879591,0.108293 0.879591,0.522646 0,0.384547 -0.248358,0.532864 -0.892277,0.532864 -0.459831,0 -0.54188,-0.02043 -0.694183,-0.172722 z m 3.015998,0.101864 c -0.315787,-0.127236 -0.390158,-0.503872 -0.157818,-0.799244 0.129775,-0.164982 0.194313,-0.185408 0.585856,-0.185408 0.368958,0 0.464719,0.02632 0.593012,0.162861 0.202958,0.216039 0.19504,0.505173 -0.01974,0.719927 -0.13721,0.13721 -0.242097,0.171804 -0.510162,0.168259 -0.185593,-0.0023 -0.406621,-0.03232 -0.491171,-0.06639 z m -8.536628,-2.391998 c -0.336271,-0.336267 -0.09013,-0.835669 0.441405,-0.895582 0.401304,-0.04523 0.708693,0.06985 0.816076,0.305531 0.111295,0.244268 0.100463,0.333314 -0.06634,0.545379 -0.13053,0.165941 -0.19333,0.185408 -0.598121,0.185408 -0.358458,0 -0.481476,-0.02918 -0.593015,-0.140736 z m 2.579309,0.01204 c -0.167129,-0.184672 -0.150054,-0.593136 0.03166,-0.757591 0.121156,-0.109647 0.256795,-0.134047 0.745075,-0.134047 0.542461,0 0.609227,0.01517 0.731467,0.166119 0.174398,0.215373 0.171607,0.535646 -0.0062,0.713468 -0.11952,0.119519 -0.234558,0.140735 -0.763133,0.140735 -0.513602,0 -0.642754,-0.02249 -0.738856,-0.128684 z m 2.909335,-0.01204 c -0.177822,-0.177822 -0.180613,-0.498094 -0.0062,-0.713468 0.122236,-0.150956 0.189003,-0.166119 0.731468,-0.166119 0.700608,0 0.893194,0.108556 0.893194,0.503474 0,0.407929 -0.185361,0.516849 -0.879591,0.516849 -0.504298,0 -0.620195,-0.02206 -0.738856,-0.140736 z m 2.890166,-0.04467 c -0.184344,-0.234353 -0.185396,-0.44927 -0.0031,-0.644879 0.17944,-0.192606 0.41745,-0.253567 0.793215,-0.203167 0.342173,0.0459 0.541814,0.248068 0.541814,0.54868 0,0.343798 -0.213376,0.484774 -0.733747,0.484774 -0.404791,0 -0.46759,-0.01947 -0.59812,-0.185408 z"
       id="path2" /></g><g
     inkscape:groupmode="layer"
     id="layer2"
     inkscape:label="Layer 2"
     transform="translate(-24.429354,-55.714512)"><path
       style="fill:#ffffff;fill-opacity:1;stroke:#000000;stroke-width:0.492347;stroke-opacity:1"
       d="m 30.506936,107.93004 -0.736719,-0.0896 V 96.874436 85.908417 h -1.887463 c -1.646776,0 -1.971316,-0.08385 -2.545031,-0.657569 -0.923359,-0.923358 -0.890552,-2.302518 0.07915,-3.327384 0.405196,-0.428247 5.248178,-4.739958 10.762183,-9.581578 C 41.693061,67.500264 48.142705,61.82451 50.511596,59.729098 56.03906,54.839761 55.528102,54.88808 59.989,58.832852 l 3.295046,2.913806 0.644271,-0.644274 c 0.603125,-0.603121 0.834412,-0.644273 3.620941,-0.644273 1.637167,0 3.200198,0.119628 3.473398,0.265841 0.783997,0.419581 1.108321,1.890807 1.074504,4.874275 -0.01722,1.51958 -0.02407,3.021075 -0.01521,3.336656 0.01138,0.404905 1.967625,2.286775 6.646591,6.393873 3.646766,3.201049 6.961998,6.169573 7.367199,6.596713 0.969822,1.022354 1.002655,2.401867 0.07915,3.325379 -0.573306,0.573306 -0.898636,0.657569 -2.538849,0.657569 h -1.881279 l -0.07316,4.755183 -0.07315,4.755191 h -1.071594 -1.071589 l -0.07241,-5.388548 c -0.08715,-6.485986 -0.05209,-6.579012 2.56261,-6.79961 l 1.601837,-0.135147 -6.829208,-6.027707 C 72.97204,73.752547 69.790944,70.760984 69.658994,70.419869 69.527052,70.078753 69.419092,68.30058 69.419092,66.468374 V 63.13709 h -1.830016 c -1.668313,0 -1.861082,0.05805 -2.181594,0.656927 -0.43192,0.807051 -1.528115,1.227199 -2.379827,0.912132 -0.345865,-0.127945 -2.117961,-1.563522 -3.937989,-3.19017 l -3.309113,-2.957543 -6.77654,5.965437 c -3.727096,3.28099 -8.415311,7.415455 -10.418256,9.187697 -2.002945,1.772244 -5.159258,4.548355 -7.014029,6.169144 -1.85477,1.62078 -3.380541,3.037287 -3.390602,3.147801 -0.01006,0.110506 0.589957,0.200918 1.333374,0.200918 1.077905,0 1.484848,0.133181 2.009235,0.657569 l 0.657567,0.657565 V 96.17906 c 0,12.86623 0.127689,11.97009 -1.674362,11.75098 z"
       id="path1" /><text
       xml:space="preserve"
       style="font-size:30.3807px;line-height:1.25;font-family:sans-serif;fill:url(#linearGradient12);stroke-width:0.316464"
       x="91.476562"
       y="82.476997"
       id="text7"><tspan
         sodipodi:role="line"
         id="tspan7"
         style="font-style:normal;font-variant:normal;font-weight:normal;font-stretch:normal;font-size:30.3807px;font-family:Federation;-inkscape-font-specification:Federation;fill:url(#linearGradient12);stroke-width:0.316464"
         x="91.476562"
         y="82.476997">Homelab</tspan></text><text
       xml:space="preserve"
       style="font-size:29.5429px;line-height:1.25;font-family:sans-serif;fill:url(#linearGradient9);stroke-width:0.307738"
       x="90.09745"
       y="107.53704"
       id="text8"><tspan
         sodipodi:role="line"
         id="tspan8"
         style="font-style:normal;font-variant:normal;font-weight:normal;font-stretch:normal;font-size:29.5429px;font-family:Federation;-inkscape-font-specification:Federation;fill:url(#linearGradient9);stroke-width:0.307738"
         x="90.09745"
         y="107.53704">India</tspan></text></g></svg>
